<svg width="210" height="210" viewBox="0 0 210 210" fill="currentColor"
    xmlns="http://www.w3.org/2000/svg">
    <path d="M176.823 85.2136C176.847 85.6455 176.815 86.0851 176.707 86.5218L167.022 125.258C166.534 127.21 164.785 128.582 162.774 128.593L104.67 128.886C104.662 128.886 104.655 128.886 104.647 128.886H46.5421C44.5207 128.886 42.7594 127.509 42.2711 125.548L32.587 86.6644C32.4754 86.216 32.4432 85.7641 32.4713 85.321C28.7251 84.1407 26 80.635 26 76.5037C26 71.4064 30.1466 67.2598 35.2439 67.2598C40.3413 67.2598 44.4879 71.4064 44.4879 76.5037C44.4879 79.3743 43.1726 81.9427 41.1131 83.6395L53.2376 95.8555C56.3019 98.9433 60.5541 100.713 64.9043 100.713C70.048 100.713 74.9523 98.2707 78.0407 94.1781L97.9665 67.7763C96.2926 66.1036 95.2561 63.7923 95.2561 61.2439C95.2561 56.1466 99.4026 52 104.5 52C109.597 52 113.744 56.1466 113.744 61.2439C113.744 63.716 112.763 65.9598 111.176 67.6202C111.181 67.6272 111.188 67.6331 111.193 67.6407L130.975 94.1153C134.062 98.2472 138.984 100.714 144.142 100.714C148.532 100.714 152.661 99.0043 155.765 95.8995L167.966 83.6987C165.863 82.0026 164.512 79.4096 164.512 76.5037C164.512 71.4064 168.659 67.2598 173.756 67.2598C178.853 67.2598 183 71.4064 183 76.5037C183 80.5247 180.415 83.9447 176.823 85.2136ZM166.077 142.679C166.077 140.248 164.107 138.277 161.676 138.277H47.8139C45.3829 138.277 43.412 140.248 43.412 142.679V153.243C43.412 155.674 45.3829 157.645 47.8139 157.645H161.676C164.107 157.645 166.077 155.674 166.077 153.243V142.679Z" fill="currentColor"/>
</svg>
