<svg width="210" height="210" viewBox="0 0 210 210" fill="currentColor"
    xmlns="http://www.w3.org/2000/svg">
    <path d="M118.661 119.334V186.121L166 154.135L163.109 98.971C162.334 84.0822 155.874 70.0588 145.061 59.7944C134.248 49.5299 119.908 43.8076 104.999 43.8082C90.0905 43.8081 75.7506 49.5306 64.9382 59.795C54.1257 70.0594 47.6657 84.0825 46.891 98.971L44 154.135L91.3385 186.121V119.334L66.927 105.868V83.552L100.598 94.7264V150.944L104.999 156.045L109.4 150.944V94.7264L143.071 83.552V105.868L118.661 119.334Z" fill="currentColor"/>
    <path d="M146.083 60.8138C140.689 55.4173 134.284 51.1375 127.235 48.2194C120.185 45.3014 112.629 43.8024 104.999 43.8082C97.3694 43.8024 89.8133 45.3014 82.7636 48.2194C75.7139 51.1375 69.3089 55.4173 63.9153 60.8138C76.3012 68.2942 90.5306 72.1656 104.999 71.9916C119.468 72.1656 133.697 68.2942 146.083 60.8138V60.8138Z" fill="currentColor"/>
    <path d="M114.976 89.4342L104.999 95.2671L95.022 89.4342L93.262 31.9229L104.999 24L116.737 31.9229L114.976 89.4342Z" fill="currentColor"/>
    <path d="M104.999 66.6603C104.21 66.6603 103.453 66.9738 102.895 67.5319C102.337 68.09 102.023 68.847 102.023 69.6363V93.5053C102.023 94.2946 102.337 95.0516 102.895 95.6097C103.453 96.1678 104.21 96.4813 104.999 96.4813C105.788 96.4813 106.545 96.1678 107.104 95.6097C107.662 95.0516 107.975 94.2946 107.975 93.5053V69.6363C107.975 68.847 107.662 68.09 107.104 67.5319C106.545 66.9738 105.788 66.6603 104.999 66.6603Z" fill="currentColor"/>
</svg>
