<svg width="512" height="512" viewBox="0 0 512 512" fill="none"
    xmlns="http://www.w3.org/2000/svg">
    <rect width="512" height="512" fill="#B52525"/>
    <path d="M239.947 196.236L232.184 204H222.193V196.236H226.998V165.123H239.947V196.236ZM215.367 196.236H220.143V204H210.182L202.389 196.236V165.123H215.367V196.236ZM208.482 154.752H218.326V161.227H208.482V154.752ZM224.01 154.752H233.854V161.227H224.01V154.752ZM283.863 204H270.094L246.539 165.123H260.221L283.863 204ZM246.539 204V168.814L257.818 187.301V204H246.539ZM283.863 165.123V200.309L272.584 181.734V165.123H283.863ZM290.133 195.709H294.029V173.385H290.133V165.123H310.875V173.385H306.979V195.709H310.875V204H290.133V195.709ZM295.641 154.752H305.484V161.227H295.641V154.752ZM176.9 274.752H164.186L166.881 267.047H173.912L163.512 240.123H176.139L191.637 279H178.541L176.9 274.752ZM160.729 279H148.219L162.105 241.881L167.848 257.32L160.729 279ZM195.328 279V240.123H208.277V279H195.328ZM210.328 247.887V240.123H225.123L232.916 247.887V259.547L226.939 265.523L226.529 264.703L214.371 266.314L214.84 267.34H210.328V259.811H220.055V247.887H210.328ZM234.234 279H220.406L214.84 267.34H225.123L226.939 265.523L234.234 279ZM251.812 263.033V279H238.863V240.123H251.812V255.533H264.205V263.033H251.812ZM253.863 247.652V240.123H274.107V251.373H261.92V247.652H253.863ZM253.863 279V271.236H261.158V267.34H274.107V279H253.863ZM317.672 279H303.902L280.348 240.123H294.029L317.672 279ZM280.348 279V243.814L291.627 262.301V279H280.348ZM317.672 240.123V275.309L306.393 256.734V240.123H317.672ZM350.045 274.752H337.33L340.025 267.047H347.057L336.656 240.123H349.283L364.781 279H351.686L350.045 274.752ZM333.873 279H321.363L335.25 241.881L340.992 257.32L333.873 279Z" fill="#F5F5F5"/>
    <path d="M424.999 88.5896C425.034 84.6634 421.497 81.4552 417.098 81.4241C415.952 81.4161 414.816 81.6294 413.769 82.0489C394.472 89.9466 373.515 94.0905 352.286 94.206C319.281 93.8434 287.313 83.8564 261.256 65.7683C258.249 63.4106 253.75 63.4106 250.743 65.7683C224.732 83.932 192.735 93.9279 159.713 94.206C138.485 94.0905 117.527 89.9466 98.2297 82.0489C94.2178 80.4386 89.504 82.0373 87.7001 85.6178C87.2302 86.5518 86.9913 87.5649 87.0002 88.5896C87.0002 90.0825 87.5577 236.679 87.0002 285.237C87.0002 311.257 154.536 395.433 251.938 447.048C254.402 448.317 257.438 448.317 259.902 447.048C357.463 395.433 425.317 311.186 424.999 285.166C424.441 236.608 424.999 90.0114 424.999 88.5896ZM260.061 399.059C257.597 400.329 254.561 400.329 252.097 399.059C179.225 360.526 128.573 297.252 128.573 277.416C128.971 241.443 128.573 132.952 128.573 131.815C128.538 127.889 132.075 124.681 136.474 124.65C137.62 124.642 138.756 124.855 139.803 125.274C153.821 131.029 169.051 134.059 184.481 134.161C208.455 134.049 231.728 126.933 250.743 113.899C253.75 111.541 258.249 111.541 261.256 113.899C280.163 126.995 303.349 134.211 327.279 134.445C342.709 134.343 357.939 131.314 371.958 125.559C375.97 123.948 380.683 125.547 382.487 129.128C382.957 130.062 383.196 131.075 383.187 132.099C383.426 133.166 382.789 241.869 383.426 277.416C383.426 297.252 332.774 360.526 260.061 399.059Z" fill="#F5F5F5"/>
</svg>
