<svg width="338" height="384" viewBox="0 0 338 384" fill="none"
    xmlns="http://www.w3.org/2000/svg">
    <path d="M152.947 132.236L145.184 140H135.193V132.236H139.998V101.123H152.947V132.236ZM128.367 132.236H133.143V140H123.182L115.389 132.236V101.123H128.367V132.236ZM121.482 90.752H131.326V97.2266H121.482V90.752ZM137.01 90.752H146.854V97.2266H137.01V90.752ZM196.863 140H183.094L159.539 101.123H173.221L196.863 140ZM159.539 140V104.814L170.818 123.301V140H159.539ZM196.863 101.123V136.309L185.584 117.734V101.123H196.863ZM203.133 131.709H207.029V109.385H203.133V101.123H223.875V109.385H219.979V131.709H223.875V140H203.133V131.709ZM208.641 90.752H218.484V97.2266H208.641V90.752ZM89.9004 210.752H77.1855L79.8809 203.047H86.9121L76.5117 176.123H89.1387L104.637 215H91.541L89.9004 210.752ZM73.7285 215H61.2188L75.1055 177.881L80.8477 193.32L73.7285 215ZM108.328 215V176.123H121.277V215H108.328ZM123.328 183.887V176.123H138.123L145.916 183.887V195.547L139.939 201.523L139.529 200.703L127.371 202.314L127.84 203.34H123.328V195.811H133.055V183.887H123.328ZM147.234 215H133.406L127.84 203.34H138.123L139.939 201.523L147.234 215ZM164.812 199.033V215H151.863V176.123H164.812V191.533H177.205V199.033H164.812ZM166.863 183.652V176.123H187.107V187.373H174.92V183.652H166.863ZM166.863 215V207.236H174.158V203.34H187.107V215H166.863ZM230.672 215H216.902L193.348 176.123H207.029L230.672 215ZM193.348 215V179.814L204.627 198.301V215H193.348ZM230.672 176.123V211.309L219.393 192.734V176.123H230.672ZM263.045 210.752H250.33L253.025 203.047H260.057L249.656 176.123H262.283L277.781 215H264.686L263.045 210.752ZM246.873 215H234.363L248.25 177.881L253.992 193.32L246.873 215Z" fill="currentColor"/>
    <path d="M337.999 24.5896C338.034 20.6634 334.497 17.4552 330.098 17.4241C328.952 17.4161 327.816 17.6294 326.769 18.0489C307.472 25.9466 286.515 30.0905 265.286 30.206C232.281 29.8434 200.313 19.8564 174.256 1.76825C171.249 -0.589417 166.75 -0.589417 163.743 1.76825C137.732 19.932 105.735 29.9279 72.713 30.206C51.4845 30.0905 30.5268 25.9466 11.2297 18.0489C7.21776 16.4386 2.50397 18.0373 0.700092 21.6178C0.230207 22.5518 -0.00871669 23.5649 0.000242983 24.5896C0.000242983 26.0825 0.557734 172.679 0.000242983 221.237C0.000242983 247.257 67.5363 331.433 164.938 383.048C167.402 384.317 170.438 384.317 172.902 383.048C270.463 331.433 338.317 247.186 337.999 221.166C337.441 172.608 337.999 26.0114 337.999 24.5896ZM173.061 335.059C170.597 336.329 167.561 336.329 165.097 335.059C92.2251 296.526 41.5731 233.252 41.5731 213.416C41.9713 177.443 41.5731 68.9525 41.5731 67.815C41.5383 63.8888 45.0754 60.6806 49.4736 60.6495C50.6204 60.6415 51.7563 60.8548 52.8026 61.2743C66.8215 67.0294 82.0509 70.0589 97.4815 70.1611C121.455 70.0491 144.728 62.9325 163.743 49.8992C166.75 47.5415 171.249 47.5415 174.256 49.8992C193.163 62.9948 216.349 70.2108 240.279 70.4454C255.709 70.3432 270.939 67.3137 284.958 61.5586C288.97 59.9484 293.683 61.5471 295.487 65.1276C295.957 66.0616 296.196 67.0747 296.187 68.0993C296.426 69.1657 295.789 177.869 296.426 213.416C296.426 233.252 245.774 296.526 173.061 335.059Z" fill="currentColor"/>
</svg>
