<svg width="305" height="304" viewBox="0 0 305 304" fill="none"
    xmlns="http://www.w3.org/2000/svg">
    <path d="M152.5 278.667C152.5 278.667 254.167 228 254.167 152V63.3333L152.5 25.3333L50.8333 63.3333V152C50.8333 228 152.5 278.667 152.5 278.667Z" stroke="white" stroke-width="15" stroke-linecap="round" stroke-linejoin="round"/>
    <path d="M135.947 118.236L128.184 126H118.193V118.236H122.998V87.123H135.947V118.236ZM111.367 118.236H116.143V126H106.182L98.3887 118.236V87.123H111.367V118.236ZM104.482 76.752H114.326V83.2266H104.482V76.752ZM120.01 76.752H129.854V83.2266H120.01V76.752ZM179.863 126H166.094L142.539 87.123H156.221L179.863 126ZM142.539 126V90.8145L153.818 109.301V126H142.539ZM179.863 87.123V122.309L168.584 103.734V87.123H179.863ZM186.133 117.709H190.029V95.3848H186.133V87.123H206.875V95.3848H202.979V117.709H206.875V126H186.133V117.709ZM191.641 76.752H201.484V83.2266H191.641V76.752ZM72.9004 196.752H60.1855L62.8809 189.047H69.9121L59.5117 162.123H72.1387L87.6367 201H74.541L72.9004 196.752ZM56.7285 201H44.2188L58.1055 163.881L63.8477 179.32L56.7285 201ZM91.3281 201V162.123H104.277V201H91.3281ZM106.328 169.887V162.123H121.123L128.916 169.887V181.547L122.939 187.523L122.529 186.703L110.371 188.314L110.84 189.34H106.328V181.811H116.055V169.887H106.328ZM130.234 201H116.406L110.84 189.34H121.123L122.939 187.523L130.234 201ZM147.812 185.033V201H134.863V162.123H147.812V177.533H160.205V185.033H147.812ZM149.863 169.652V162.123H170.107V173.373H157.92V169.652H149.863ZM149.863 201V193.236H157.158V189.34H170.107V201H149.863ZM213.672 201H199.902L176.348 162.123H190.029L213.672 201ZM176.348 201V165.814L187.627 184.301V201H176.348ZM213.672 162.123V197.309L202.393 178.734V162.123H213.672ZM246.045 196.752H233.33L236.025 189.047H243.057L232.656 162.123H245.283L260.781 201H247.686L246.045 196.752ZM229.873 201H217.363L231.25 163.881L236.992 179.32L229.873 201Z" fill="white"/>
    <path d="M135.947 118.236L136.654 118.943L136.947 118.651V118.236H135.947ZM128.184 126V127H128.598L128.891 126.707L128.184 126ZM118.193 126H117.193V127H118.193V126ZM118.193 118.236V117.236H117.193V118.236H118.193ZM122.998 118.236V119.236H123.998V118.236H122.998ZM122.998 87.123V86.123H121.998V87.123H122.998ZM135.947 87.123H136.947V86.123H135.947V87.123ZM111.367 118.236H110.367V119.236H111.367V118.236ZM116.143 118.236H117.143V117.236H116.143V118.236ZM116.143 126V127H117.143V126H116.143ZM106.182 126L105.476 126.708L105.769 127H106.182V126ZM98.3887 118.236H97.3887V118.652L97.6829 118.945L98.3887 118.236ZM98.3887 87.123V86.123H97.3887V87.123H98.3887ZM111.367 87.123H112.367V86.123H111.367V87.123ZM104.482 76.752V75.752H103.482V76.752H104.482ZM114.326 76.752H115.326V75.752H114.326V76.752ZM114.326 83.2266V84.2266H115.326V83.2266H114.326ZM104.482 83.2266H103.482V84.2266H104.482V83.2266ZM120.01 76.752V75.752H119.01V76.752H120.01ZM129.854 76.752H130.854V75.752H129.854V76.752ZM129.854 83.2266V84.2266H130.854V83.2266H129.854ZM120.01 83.2266H119.01V84.2266H120.01V83.2266ZM135.24 117.529L127.476 125.293L128.891 126.707L136.654 118.943L135.24 117.529ZM128.184 125H118.193V127H128.184V125ZM119.193 126V118.236H117.193V126H119.193ZM118.193 119.236H122.998V117.236H118.193V119.236ZM123.998 118.236V87.123H121.998V118.236H123.998ZM122.998 88.123H135.947V86.123H122.998V88.123ZM134.947 87.123V118.236H136.947V87.123H134.947ZM111.367 119.236H116.143V117.236H111.367V119.236ZM115.143 118.236V126H117.143V118.236H115.143ZM116.143 125H106.182V127H116.143V125ZM106.887 125.292L99.0944 117.528L97.6829 118.945L105.476 126.708L106.887 125.292ZM99.3887 118.236V87.123H97.3887V118.236H99.3887ZM98.3887 88.123H111.367V86.123H98.3887V88.123ZM110.367 87.123V118.236H112.367V87.123H110.367ZM104.482 77.752H114.326V75.752H104.482V77.752ZM113.326 76.752V83.2266H115.326V76.752H113.326ZM114.326 82.2266H104.482V84.2266H114.326V82.2266ZM105.482 83.2266V76.752H103.482V83.2266H105.482ZM120.01 77.752H129.854V75.752H120.01V77.752ZM128.854 76.752V83.2266H130.854V76.752H128.854ZM129.854 82.2266H120.01V84.2266H129.854V82.2266ZM121.01 83.2266V76.752H119.01V83.2266H121.01ZM179.863 126V127H181.642L180.718 125.48L179.863 126ZM166.094 126L165.238 126.518L165.53 127H166.094V126ZM142.539 87.123V86.123H140.764L141.684 87.6412L142.539 87.123ZM156.221 87.123L157.075 86.6034L156.783 86.123H156.221V87.123ZM142.539 126H141.539V127H142.539V126ZM142.539 90.8145L143.393 90.2936L141.539 87.2555V90.8145H142.539ZM153.818 109.301H154.818V109.02L154.672 108.78L153.818 109.301ZM153.818 126V127H154.818V126H153.818ZM179.863 87.123H180.863V86.123H179.863V87.123ZM179.863 122.309L179.009 122.828L180.863 125.882V122.309H179.863ZM168.584 103.734H167.584V104.014L167.729 104.253L168.584 103.734ZM168.584 87.123V86.123H167.584V87.123H168.584ZM179.863 125H166.094V127H179.863V125ZM166.949 125.482L143.394 86.6049L141.684 87.6412L165.238 126.518L166.949 125.482ZM142.539 88.123H156.221V86.123H142.539V88.123ZM155.366 87.6426L179.009 126.52L180.718 125.48L157.075 86.6034L155.366 87.6426ZM143.539 126V90.8145H141.539V126H143.539ZM141.685 91.3353L152.965 109.822L154.672 108.78L143.393 90.2936L141.685 91.3353ZM152.818 109.301V126H154.818V109.301H152.818ZM153.818 125H142.539V127H153.818V125ZM178.863 87.123V122.309H180.863V87.123H178.863ZM180.718 121.79L169.439 103.215L167.729 104.253L179.009 122.828L180.718 121.79ZM169.584 103.734V87.123H167.584V103.734H169.584ZM168.584 88.123H179.863V86.123H168.584V88.123ZM186.133 117.709V116.709H185.133V117.709H186.133ZM190.029 117.709V118.709H191.029V117.709H190.029ZM190.029 95.3848H191.029V94.3848H190.029V95.3848ZM186.133 95.3848H185.133V96.3848H186.133V95.3848ZM186.133 87.123V86.123H185.133V87.123H186.133ZM206.875 87.123H207.875V86.123H206.875V87.123ZM206.875 95.3848V96.3848H207.875V95.3848H206.875ZM202.979 95.3848V94.3848H201.979V95.3848H202.979ZM202.979 117.709H201.979V118.709H202.979V117.709ZM206.875 117.709H207.875V116.709H206.875V117.709ZM206.875 126V127H207.875V126H206.875ZM186.133 126H185.133V127H186.133V126ZM191.641 76.752V75.752H190.641V76.752H191.641ZM201.484 76.752H202.484V75.752H201.484V76.752ZM201.484 83.2266V84.2266H202.484V83.2266H201.484ZM191.641 83.2266H190.641V84.2266H191.641V83.2266ZM186.133 118.709H190.029V116.709H186.133V118.709ZM191.029 117.709V95.3848H189.029V117.709H191.029ZM190.029 94.3848H186.133V96.3848H190.029V94.3848ZM187.133 95.3848V87.123H185.133V95.3848H187.133ZM186.133 88.123H206.875V86.123H186.133V88.123ZM205.875 87.123V95.3848H207.875V87.123H205.875ZM206.875 94.3848H202.979V96.3848H206.875V94.3848ZM201.979 95.3848V117.709H203.979V95.3848H201.979ZM202.979 118.709H206.875V116.709H202.979V118.709ZM205.875 117.709V126H207.875V117.709H205.875ZM206.875 125H186.133V127H206.875V125ZM187.133 126V117.709H185.133V126H187.133ZM191.641 77.752H201.484V75.752H191.641V77.752ZM200.484 76.752V83.2266H202.484V76.752H200.484ZM201.484 82.2266H191.641V84.2266H201.484V82.2266ZM192.641 83.2266V76.752H190.641V83.2266H192.641ZM72.9004 196.752L73.8332 196.392L73.5862 195.752H72.9004V196.752ZM60.1855 196.752L59.2416 196.422L58.7763 197.752H60.1855V196.752ZM62.8809 189.047V188.047H62.1712L61.9369 188.717L62.8809 189.047ZM69.9121 189.047V190.047H71.3704L70.8449 188.687L69.9121 189.047ZM59.5117 162.123V161.123H58.0534L58.5789 162.483L59.5117 162.123ZM72.1387 162.123L73.0676 161.753L72.8166 161.123H72.1387V162.123ZM87.6367 201V202H89.1119L88.5656 200.63L87.6367 201ZM74.541 201L73.6082 201.36L73.8552 202H74.541V201ZM56.7285 201V202H57.4527L57.6786 201.312L56.7285 201ZM44.2188 201L43.2821 200.65L42.7769 202H44.2188V201ZM58.1055 163.881L59.0427 163.532L58.1082 161.02L57.1689 163.53L58.1055 163.881ZM63.8477 179.32L64.7977 179.632L64.9069 179.3L64.7849 178.972L63.8477 179.32ZM72.9004 195.752H60.1855V197.752H72.9004V195.752ZM61.1295 197.082L63.8248 189.377L61.9369 188.717L59.2416 196.422L61.1295 197.082ZM62.8809 190.047H69.9121V188.047H62.8809V190.047ZM70.8449 188.687L60.4445 161.763L58.5789 162.483L68.9793 189.407L70.8449 188.687ZM59.5117 163.123H72.1387V161.123H59.5117V163.123ZM71.2098 162.493L86.7078 201.37L88.5656 200.63L73.0676 161.753L71.2098 162.493ZM87.6367 200H74.541V202H87.6367V200ZM75.4739 200.64L73.8332 196.392L71.9675 197.112L73.6082 201.36L75.4739 200.64ZM56.7285 200H44.2188V202H56.7285V200ZM45.1554 201.35L59.0421 164.231L57.1689 163.53L43.2821 200.65L45.1554 201.35ZM57.1682 164.229L62.9104 179.669L64.7849 178.972L59.0427 163.532L57.1682 164.229ZM62.8976 179.008L55.7784 200.688L57.6786 201.312L64.7977 179.632L62.8976 179.008ZM91.3281 201H90.3281V202H91.3281V201ZM91.3281 162.123V161.123H90.3281V162.123H91.3281ZM104.277 162.123H105.277V161.123H104.277V162.123ZM104.277 201V202H105.277V201H104.277ZM106.328 169.887H105.328V170.887H106.328V169.887ZM106.328 162.123V161.123H105.328V162.123H106.328ZM121.123 162.123L121.829 161.415L121.536 161.123H121.123V162.123ZM128.916 169.887H129.916V169.471L129.622 169.178L128.916 169.887ZM128.916 181.547L129.623 182.254L129.916 181.961V181.547H128.916ZM122.939 187.523L122.045 187.971L122.666 189.212L123.647 188.231L122.939 187.523ZM122.529 186.703L123.424 186.256L123.105 185.618L122.398 185.712L122.529 186.703ZM110.371 188.314L110.24 187.323L108.9 187.501L109.462 188.73L110.371 188.314ZM110.84 189.34V190.34H112.397L111.749 188.924L110.84 189.34ZM106.328 189.34H105.328V190.34H106.328V189.34ZM106.328 181.811V180.811H105.328V181.811H106.328ZM116.055 181.811V182.811H117.055V181.811H116.055ZM116.055 169.887H117.055V168.887H116.055V169.887ZM130.234 201V202H131.913L131.114 200.524L130.234 201ZM116.406 201L115.504 201.431L115.776 202H116.406V201ZM110.84 189.34V188.34H109.254L109.937 189.771L110.84 189.34ZM121.123 189.34V190.34H121.537L121.83 190.047L121.123 189.34ZM122.939 187.523L123.819 187.047L123.181 185.868L122.232 186.816L122.939 187.523ZM92.3281 201V162.123H90.3281V201H92.3281ZM91.3281 163.123H104.277V161.123H91.3281V163.123ZM103.277 162.123V201H105.277V162.123H103.277ZM104.277 200H91.3281V202H104.277V200ZM107.328 169.887V162.123H105.328V169.887H107.328ZM106.328 163.123H121.123V161.123H106.328V163.123ZM120.417 162.831L128.21 170.595L129.622 169.178L121.829 161.415L120.417 162.831ZM127.916 169.887V181.547H129.916V169.887H127.916ZM128.209 180.84L122.232 186.816L123.647 188.231L129.623 182.254L128.209 180.84ZM123.834 187.076L123.424 186.256L121.635 187.15L122.045 187.971L123.834 187.076ZM122.398 185.712L110.24 187.323L110.502 189.306L122.661 187.694L122.398 185.712ZM109.462 188.73L109.93 189.756L111.749 188.924L111.281 187.899L109.462 188.73ZM110.84 188.34H106.328V190.34H110.84V188.34ZM107.328 189.34V181.811H105.328V189.34H107.328ZM106.328 182.811H116.055V180.811H106.328V182.811ZM117.055 181.811V169.887H115.055V181.811H117.055ZM116.055 168.887H106.328V170.887H116.055V168.887ZM130.234 200H116.406V202H130.234V200ZM117.309 200.569L111.742 188.909L109.937 189.771L115.504 201.431L117.309 200.569ZM110.84 190.34H121.123V188.34H110.84V190.34ZM121.83 190.047L123.647 188.231L122.232 186.816L120.416 188.633L121.83 190.047ZM122.06 187.999L129.355 201.476L131.114 200.524L123.819 187.047L122.06 187.999ZM147.812 185.033V184.033H146.812V185.033H147.812ZM147.812 201V202H148.812V201H147.812ZM134.863 201H133.863V202H134.863V201ZM134.863 162.123V161.123H133.863V162.123H134.863ZM147.812 162.123H148.812V161.123H147.812V162.123ZM147.812 177.533H146.812V178.533H147.812V177.533ZM160.205 177.533H161.205V176.533H160.205V177.533ZM160.205 185.033V186.033H161.205V185.033H160.205ZM149.863 169.652H148.863V170.652H149.863V169.652ZM149.863 162.123V161.123H148.863V162.123H149.863ZM170.107 162.123H171.107V161.123H170.107V162.123ZM170.107 173.373V174.373H171.107V173.373H170.107ZM157.92 173.373H156.92V174.373H157.92V173.373ZM157.92 169.652H158.92V168.652H157.92V169.652ZM149.863 201H148.863V202H149.863V201ZM149.863 193.236V192.236H148.863V193.236H149.863ZM157.158 193.236V194.236H158.158V193.236H157.158ZM157.158 189.34V188.34H156.158V189.34H157.158ZM170.107 189.34H171.107V188.34H170.107V189.34ZM170.107 201V202H171.107V201H170.107ZM146.812 185.033V201H148.812V185.033H146.812ZM147.812 200H134.863V202H147.812V200ZM135.863 201V162.123H133.863V201H135.863ZM134.863 163.123H147.812V161.123H134.863V163.123ZM146.812 162.123V177.533H148.812V162.123H146.812ZM147.812 178.533H160.205V176.533H147.812V178.533ZM159.205 177.533V185.033H161.205V177.533H159.205ZM160.205 184.033H147.812V186.033H160.205V184.033ZM150.863 169.652V162.123H148.863V169.652H150.863ZM149.863 163.123H170.107V161.123H149.863V163.123ZM169.107 162.123V173.373H171.107V162.123H169.107ZM170.107 172.373H157.92V174.373H170.107V172.373ZM158.92 173.373V169.652H156.92V173.373H158.92ZM157.92 168.652H149.863V170.652H157.92V168.652ZM150.863 201V193.236H148.863V201H150.863ZM149.863 194.236H157.158V192.236H149.863V194.236ZM158.158 193.236V189.34H156.158V193.236H158.158ZM157.158 190.34H170.107V188.34H157.158V190.34ZM169.107 189.34V201H171.107V189.34H169.107ZM170.107 200H149.863V202H170.107V200ZM213.672 201V202H215.45L214.526 200.48L213.672 201ZM199.902 201L199.047 201.518L199.339 202H199.902V201ZM176.348 162.123V161.123H174.573L175.492 162.641L176.348 162.123ZM190.029 162.123L190.884 161.603L190.592 161.123H190.029V162.123ZM176.348 201H175.348V202H176.348V201ZM176.348 165.814L177.201 165.294L175.348 162.256V165.814H176.348ZM187.627 184.301H188.627V184.02L188.481 183.78L187.627 184.301ZM187.627 201V202H188.627V201H187.627ZM213.672 162.123H214.672V161.123H213.672V162.123ZM213.672 197.309L212.817 197.828L214.672 200.882V197.309H213.672ZM202.393 178.734H201.393V179.014L201.538 179.253L202.393 178.734ZM202.393 162.123V161.123H201.393V162.123H202.393ZM213.672 200H199.902V202H213.672V200ZM200.758 200.482L177.203 161.605L175.492 162.641L199.047 201.518L200.758 200.482ZM176.348 163.123H190.029V161.123H176.348V163.123ZM189.175 162.643L212.817 201.52L214.526 200.48L190.884 161.603L189.175 162.643ZM177.348 201V165.814H175.348V201H177.348ZM175.494 166.335L186.773 184.822L188.481 183.78L177.201 165.294L175.494 166.335ZM186.627 184.301V201H188.627V184.301H186.627ZM187.627 200H176.348V202H187.627V200ZM212.672 162.123V197.309H214.672V162.123H212.672ZM214.527 196.79L203.247 178.215L201.538 179.253L212.817 197.828L214.527 196.79ZM203.393 178.734V162.123H201.393V178.734H203.393ZM202.393 163.123H213.672V161.123H202.393V163.123ZM246.045 196.752L246.978 196.392L246.731 195.752H246.045V196.752ZM233.33 196.752L232.386 196.422L231.921 197.752H233.33V196.752ZM236.025 189.047V188.047H235.316L235.081 188.717L236.025 189.047ZM243.057 189.047V190.047H244.515L243.989 188.687L243.057 189.047ZM232.656 162.123V161.123H231.198L231.723 162.483L232.656 162.123ZM245.283 162.123L246.212 161.753L245.961 161.123H245.283V162.123ZM260.781 201V202H262.256L261.71 200.63L260.781 201ZM247.686 201L246.753 201.36L247 202H247.686V201ZM229.873 201V202H230.597L230.823 201.312L229.873 201ZM217.363 201L216.427 200.65L215.921 202H217.363V201ZM231.25 163.881L232.187 163.532L231.253 161.02L230.313 163.53L231.25 163.881ZM236.992 179.32L237.942 179.632L238.051 179.3L237.929 178.972L236.992 179.32ZM246.045 195.752H233.33V197.752H246.045V195.752ZM234.274 197.082L236.969 189.377L235.081 188.717L232.386 196.422L234.274 197.082ZM236.025 190.047H243.057V188.047H236.025V190.047ZM243.989 188.687L233.589 161.763L231.723 162.483L242.124 189.407L243.989 188.687ZM232.656 163.123H245.283V161.123H232.656V163.123ZM244.354 162.493L259.852 201.37L261.71 200.63L246.212 161.753L244.354 162.493ZM260.781 200H247.686V202H260.781V200ZM248.618 200.64L246.978 196.392L245.112 197.112L246.753 201.36L248.618 200.64ZM229.873 200H217.363V202H229.873V200ZM218.3 201.35L232.187 164.231L230.313 163.53L216.427 200.65L218.3 201.35ZM230.313 164.229L236.055 179.669L237.929 178.972L232.187 163.532L230.313 164.229ZM236.042 179.008L228.923 200.688L230.823 201.312L237.942 179.632L236.042 179.008Z" fill="#536DFE"/>
</svg>
