<svg width="210" height="210" viewBox="0 0 210 210" fill="currentColor"
    xmlns="http://www.w3.org/2000/svg">
    <path d="M85.7499 172.565V162.75H71.7263L85.7499 172.565Z" fill="currentColor"/>
    <path d="M87.7232 157.938H122.277L123.239 153.125H86.7607L87.7232 157.938Z" fill="currentColor"/>
    <path d="M143.5 143.5H130.073L127.186 157.938H143.5V143.5Z" fill="currentColor"/>
    <path d="M66.5 143.5V157.938H82.8144L79.9269 143.5H66.5Z" fill="currentColor"/>
    <path d="M61.6874 155.531H42.6323L50.3299 165.156L42.6323 174.781H80.5235L61.6874 161.597V155.531Z" fill="currentColor"/>
    <path d="M148.312 155.531V161.597L129.476 174.781H167.368L159.67 165.156L167.368 155.531H148.312Z" fill="currentColor"/>
    <path d="M124.25 162.75V172.565L138.274 162.75H124.25Z" fill="currentColor"/>
    <path d="M113.513 144.001L105 129.101L96.4866 144.001L84.1089 139.874L85.7981 148.313H124.202L125.889 139.874L113.513 144.001ZM107.406 143.5H102.594V138.688H107.406V143.5Z" fill="currentColor"/>
    <path d="M56.8341 130.501L57.1902 130.297C59.4256 133.285 61.9257 136.101 64.7073 138.688H72.1475C68.0232 135.504 64.4258 131.847 61.3651 127.833C66.8152 124.409 68.6512 117.282 65.4052 111.661L64.202 109.577L62.1182 110.78C58.7086 112.748 56.6681 116.143 56.2301 119.774C55.3687 118.133 54.5843 116.456 53.8864 114.738C60.0537 112.852 63.6823 106.432 61.9979 100.151L61.3747 97.827L59.0503 98.4502C55.2508 99.468 52.4042 102.214 51.0398 105.602C50.6428 103.807 50.3276 101.985 50.1014 100.142C56.5357 99.9012 61.6875 94.6483 61.6875 88.1562V85.75H59.2812C55.3639 85.75 51.9157 87.6509 49.7188 90.5505C49.7958 88.7097 49.9691 86.8833 50.2193 85.069C56.4876 86.4887 62.8112 82.7494 64.4884 76.4859L65.1116 74.1615L62.7872 73.5383C59.0069 72.5252 55.1906 73.4685 52.32 75.6943C52.8686 73.9449 53.5087 72.2293 54.2185 70.5425C59.9045 73.5287 66.974 71.5555 70.2153 65.9417L71.4184 63.8579L69.3346 62.6548C65.9417 60.6961 62.0051 60.6191 58.6532 62.0316C59.6326 60.4844 60.6961 58.9853 61.8222 57.5319C66.5409 61.8992 73.8896 61.8247 78.4783 57.2383L80.1795 55.5371L78.4783 53.8359C75.6293 50.9869 71.7095 49.8945 68.0159 50.4984L67.2363 49.6562H68.9062C78.2088 49.6562 85.75 42.1151 85.75 32.8125H83.3438C74.2963 32.8125 66.9355 39.9518 66.5385 48.9031L64.8637 47.0984C64.8469 47.1128 64.8325 47.1297 64.818 47.1441C65.3739 43.4914 64.2814 39.6342 61.4685 36.8213L59.7673 35.1201L58.0661 36.8213C53.3667 41.5207 53.3667 49.1365 58.0661 53.8359L58.3693 54.1391C56.9448 55.9414 55.6286 57.8207 54.4158 59.7601C54.014 56.0761 51.959 52.6207 48.5037 50.626L46.4198 49.4228L45.2167 51.5067C41.8937 57.26 43.8668 64.6183 49.6202 67.9413L50.0028 68.1627C49.0932 70.2682 48.3063 72.4242 47.6302 74.6187C46.2923 71.1585 43.4072 68.348 39.55 67.3157L37.2256 66.6925L36.6023 69.0169C34.8819 75.4344 38.691 82.0323 45.1108 83.7528L45.5319 83.8659C45.1975 86.1254 44.9905 88.4065 44.9063 90.7045C42.7142 87.7135 39.2059 85.75 35.2188 85.75H32.8125V88.1562C32.8125 94.7999 38.2001 100.188 44.8438 100.188H45.2648C45.5247 102.469 45.9097 104.716 46.4102 106.93C43.5251 104.629 39.6463 103.653 35.8107 104.68L33.4862 105.303L34.1095 107.628C35.8299 114.045 42.4255 117.854 48.8453 116.136L49.2183 116.035C50.0557 118.155 51.011 120.222 52.0769 122.234C48.701 120.771 44.7114 120.831 41.2801 122.813L39.1963 124.017L40.3994 126.1C43.7224 131.851 51.0807 133.824 56.8341 130.501V130.501Z" fill="currentColor"/>
    <path d="M165.156 100.188C171.8 100.188 177.188 94.7999 177.188 88.1562V85.75H174.781C170.794 85.75 167.286 87.7135 165.096 90.6997C165.012 88.4017 164.807 86.1206 164.47 83.8611L164.892 83.748C171.309 82.0275 175.118 75.432 173.4 69.0121L172.777 66.6877L170.452 67.3109C166.595 68.3456 163.71 71.1537 162.372 74.6139C161.696 72.4194 160.909 70.2634 160 68.1579L160.382 67.9365C166.136 64.6135 168.109 57.2552 164.786 51.5018L163.583 49.418L161.499 50.6212C158.043 52.6159 155.986 56.0713 155.587 59.7553C154.374 57.8158 153.058 55.9366 151.633 54.1343L151.936 53.8311C156.636 49.1317 156.636 41.5159 151.936 36.8165L150.235 35.1153L148.534 36.8165C145.721 39.6294 144.629 43.4866 145.184 47.1393C145.168 47.1249 145.153 47.108 145.139 47.0936L143.464 48.8983C143.064 39.9518 135.704 32.8125 126.656 32.8125H124.25C124.25 42.1151 131.791 49.6562 141.094 49.6562H142.764L141.982 50.4984C138.288 49.8921 134.368 50.9869 131.519 53.8359L129.818 55.5371L131.519 57.2383C136.106 61.8247 143.454 61.8992 148.175 57.5319C149.301 58.9853 150.365 60.4844 151.344 62.0316C147.992 60.6191 144.056 60.6937 140.663 62.6548L138.579 63.8579L139.782 65.9417C143.024 71.5555 150.093 73.5287 155.779 70.5425C156.491 72.2293 157.129 73.9473 157.678 75.6943C154.807 73.4685 150.991 72.5277 147.21 73.5383L144.886 74.1615L145.509 76.4859C147.186 82.7494 153.51 86.4887 159.778 85.069C160.031 86.8833 160.202 88.7097 160.279 90.5505C158.084 87.6509 154.636 85.75 150.719 85.75H148.312V88.1562C148.312 94.6483 153.464 99.9012 159.896 100.142C159.67 101.985 159.355 103.807 158.958 105.602C157.593 102.214 154.747 99.468 150.947 98.4502L148.623 97.827L148 100.151C146.318 106.429 149.944 112.849 156.111 114.738C155.413 116.456 154.629 118.133 153.767 119.774C153.33 116.143 151.289 112.748 147.879 110.78L145.796 109.577L144.592 111.661C141.346 117.282 143.18 124.409 148.633 127.833C145.574 131.847 141.974 135.504 137.85 138.688H145.29C148.072 136.101 150.574 133.283 152.807 130.297L153.163 130.501C158.917 133.824 166.275 131.851 169.598 126.098L170.801 124.014L168.717 122.811C165.286 120.831 161.297 120.768 157.921 122.231C158.987 120.22 159.942 118.153 160.779 116.033L161.152 116.134C167.57 117.854 174.168 114.045 175.888 107.625L176.511 105.301L174.187 104.678C170.351 103.65 166.472 104.627 163.587 106.927C164.088 104.716 164.473 102.466 164.733 100.185H165.156V100.188Z" fill="currentColor"/>
</svg>
