<svg width="250" height="319" viewBox="0 0 250 319" fill="currentColor" xmlns="http://www.w3.org/2000/svg">
<path d="M112.81 116.048L106.857 122H99.1982V116.048H102.882V92.1943H112.81V116.048ZM93.9648 116.048H97.626V122H89.9893L84.0146 116.048V92.1943H93.9648V116.048ZM88.6865 84.2432H96.2334V89.207H88.6865V84.2432ZM100.591 84.2432H108.138V89.207H100.591V84.2432ZM146.479 122H135.922L117.863 92.1943H128.353L146.479 122ZM117.863 122V95.0244L126.511 109.197V122H117.863ZM146.479 92.1943V119.17L137.831 104.93V92.1943H146.479ZM151.285 115.644H154.272V98.5283H151.285V92.1943H167.188V98.5283H164.2V115.644H167.188V122H151.285V115.644ZM155.508 84.2432H163.055V89.207H155.508V84.2432ZM64.4736 176.743H54.7256L56.792 170.836H62.1826L54.209 150.194H63.8896L75.7715 180H65.7314L64.4736 176.743ZM52.0752 180H42.4844L53.1309 151.542L57.5332 163.379L52.0752 180ZM78.6016 180V150.194H88.5293V180H78.6016ZM90.1016 156.146V150.194H101.444L107.419 156.146V165.086L102.837 169.668L102.522 169.039L93.2012 170.274L93.5605 171.061H90.1016V165.288H97.5586V156.146H90.1016ZM108.43 180H97.8281L93.5605 171.061H101.444L102.837 169.668L108.43 180ZM121.906 167.759V180H111.979V150.194H121.906V162.009H131.407V167.759H121.906ZM123.479 155.967V150.194H138.999V158.819H129.655V155.967H123.479ZM123.479 180V174.048H129.071V171.061H138.999V180H123.479ZM172.398 180H161.842L143.783 150.194H154.272L172.398 180ZM143.783 180V153.024L152.431 167.197V180H143.783ZM172.398 150.194V177.17L163.751 162.93V150.194H172.398ZM197.218 176.743H187.47L189.536 170.836H194.927L186.953 150.194H196.634L208.516 180H198.476L197.218 176.743ZM184.819 180H175.229L185.875 151.542L190.277 163.379L184.819 180Z" fill="#F5F5F5"/>
<path d="M249.999 20.3741C250.025 17.121 247.409 14.4628 244.156 14.437C243.307 14.4304 242.467 14.6071 241.693 14.9547C227.42 21.4985 211.919 24.932 196.218 25.0277C171.805 24.7273 148.16 16.4524 128.887 1.46511C126.664 -0.488371 123.336 -0.488371 121.112 1.46511C101.873 16.515 78.2066 24.7972 53.7818 25.0277C38.0803 24.932 22.579 21.4985 8.30599 14.9547C5.33858 13.6205 1.85205 14.9451 0.51782 17.9118C0.170271 18.6857 -0.00644725 19.5251 0.000179722 20.3741C0.000179722 21.6111 0.412525 143.076 0.000179722 183.309C0.000179722 204.869 49.9529 274.614 121.995 317.38C123.818 318.433 126.064 318.433 127.886 317.38C200.046 274.614 250.235 204.81 249.999 183.25C249.587 143.017 249.999 21.5522 249.999 20.3741ZM128.004 277.618C126.181 278.671 123.936 278.671 122.113 277.618C68.2139 245.691 30.7494 193.264 30.7494 176.83C31.0439 147.023 30.7494 57.1317 30.7494 56.1892C30.7236 52.9361 33.3398 50.2779 36.5929 50.2522C37.4411 50.2455 38.2813 50.4222 39.0552 50.7698C49.4242 55.5383 60.6886 58.0484 72.1017 58.1331C89.8333 58.0403 107.047 52.1438 121.112 41.3448C123.336 39.3913 126.664 39.3913 128.887 41.3448C142.872 52.1953 160.022 58.1743 177.721 58.3687C189.134 58.284 200.398 55.7739 210.767 51.0054C213.735 49.6712 217.221 50.9958 218.556 53.9625C218.903 54.7364 219.08 55.5758 219.073 56.4248C219.25 57.3084 218.779 147.376 219.25 176.83C219.25 193.264 181.785 245.691 128.004 277.618Z" fill="#F5F5F5"/>
</svg>
