<svg width="201" height="201" viewBox="0 0 201 201" fill="none" xmlns="http://www.w3.org/2000/svg">
<path d="M23.2212 180.301C20.6251 177.175 16.9823 174.977 12.8785 174.998C8.18909 175.106 3.54073 178.059 1.67737 182.542C1.02833 184.094 0.714286 185.775 0.714286 187.456C0.714286 194.375 6.15782 200 12.8996 200C19.641 200 25.0846 194.396 25.0846 187.456C25.0846 187.155 25.0636 186.853 25.0429 186.572L45.3094 165.709L57.0969 177.843C58.3948 179.18 60.5306 179.18 61.8286 177.843L66.4764 173.037C67.7746 171.701 67.7746 169.502 66.4764 168.166L31.5959 132.28C30.298 130.943 28.1623 130.943 26.8642 132.28L22.1951 137.086C20.8972 138.422 20.8972 140.621 22.1951 141.957L33.9827 154.092L17.3589 171.205C17.3799 171.226 17.401 171.226 17.422 171.248C17.6313 171.399 17.8616 171.55 18.071 171.701C18.9085 172.347 19.6622 173.016 20.311 173.727C21.4416 174.977 22.4677 176.421 23.1795 177.994C23.703 179.029 24.1217 180.15 24.4357 181.27C24.666 182.068 24.7498 182.542 24.7498 182.542C24.7498 182.542 24.5195 182.132 24.0587 181.464C23.8076 181.055 23.5145 180.667 23.2212 180.301Z" fill="#F5F5F5"/>
<path d="M191.232 0.577399C193.124 0.113099 194.865 1.84539 194.434 3.86506C194.434 3.86567 194.434 3.86628 194.434 3.86689L181.559 61.8609C181.559 61.8612 181.559 61.8615 181.559 61.8618C181.018 64.2517 179.699 66.347 177.806 67.8035L177.805 67.8038L66.4408 153.658L59.2906 146.298L149.043 47.7594L148.326 47.063L52.6277 139.439L45.7328 132.341L129.751 18.1489C131.149 16.2583 133.143 14.9248 135.374 14.3712L191.232 0.577464C191.232 0.577442 191.232 0.577421 191.232 0.577399Z" fill="#F5F5F5" stroke="#B52525"/>
<path d="M181.301 177.779C178.175 180.375 175.977 184.018 175.998 188.122C176.106 192.811 179.059 197.459 183.542 199.323C185.094 199.972 186.775 200.286 188.456 200.286C195.375 200.286 201 194.842 201 188.1C201 181.359 195.396 175.915 188.456 175.915C188.155 175.915 187.853 175.936 187.572 175.957L166.709 155.691L178.843 143.903C180.18 142.605 180.18 140.469 178.843 139.171L174.037 134.524C172.701 133.225 170.502 133.225 169.166 134.524L133.28 169.404C131.943 170.702 131.943 172.838 133.28 174.136L138.086 178.805C139.422 180.103 141.621 180.103 142.957 178.805L155.092 167.017L172.205 183.641C172.226 183.62 172.226 183.599 172.248 183.578C172.399 183.369 172.55 183.138 172.701 182.929C173.347 182.092 174.016 181.338 174.727 180.689C175.977 179.558 177.421 178.532 178.994 177.82C180.029 177.297 181.149 176.878 182.27 176.564C183.068 176.334 183.542 176.25 183.542 176.25C183.542 176.25 183.132 176.481 182.464 176.941C182.055 177.192 181.667 177.485 181.301 177.779Z" fill="#F5F5F5"/>
<path d="M48.063 52.6736L140.439 148.372L133.341 155.267L19.1489 71.2488C19.1488 71.2487 19.1487 71.2487 19.1486 71.2486C17.2582 69.8512 15.9247 67.8567 15.3712 65.6263L1.57746 9.76837C1.57744 9.76827 1.57741 9.76817 1.57739 9.76807C1.11312 7.87645 2.84541 6.13499 4.86506 6.56569C4.86567 6.56582 4.86628 6.56595 4.86689 6.56608L62.8609 19.4409C62.8611 19.4409 62.8614 19.441 62.8616 19.441C65.2516 19.9816 67.347 21.301 68.8035 23.1942L68.8038 23.1945L154.658 134.559L147.298 141.709L48.7594 51.9567L48.063 52.6736Z" fill="#F5F5F5" stroke="#B52525"/>
</svg>
