<svg width="210" height="210" viewBox="0 0 210 210" fill="currentColor"
    xmlns="http://www.w3.org/2000/svg">
    <g clip-path="url(#clip0)">
        <path d="M178.092 154.393L156.714 133.015L133.015 156.714L154.393 178.092C160.937 184.636 171.548 184.636 178.092 178.092C184.636 171.547 184.636 160.937 178.092 154.393V154.393Z" fill="currentColor"/>
        <path d="M94.2207 159.13C95.3901 159.13 96.5601 158.684 97.4522 157.791C99.237 156.006 99.237 153.113 97.4522 151.328L92.0824 145.958L181.323 72.9962C182.384 72.1282 183 70.8293 183 69.4579V31.5703C183 29.0463 180.954 27 178.43 27H140.541C139.17 27 137.871 27.6158 137.003 28.6773L64.0417 117.917L58.6719 112.547C56.8873 110.763 53.9934 110.763 52.2085 112.547C50.4237 114.332 50.4237 117.226 52.2085 119.011L90.9888 157.791C91.8813 158.684 93.0507 159.13 94.2207 159.13V159.13ZM154.546 48.9908C156.33 47.206 159.224 47.206 161.009 48.9908C162.794 50.7757 162.794 53.6693 161.009 55.4542L81.2937 135.17L74.8303 128.706L154.546 48.9908Z" fill="currentColor"/>
        <path d="M55.6075 178.092L76.985 156.714L53.2861 133.015L31.9083 154.393C25.3639 160.937 25.3639 171.548 31.9083 178.092C38.4527 184.636 49.0631 184.636 55.6075 178.092V178.092Z" fill="currentColor"/>
        <path d="M28.6773 72.9965L64.8093 102.538L78.8727 85.3361L48.9908 55.4542C47.206 53.6696 47.206 50.7757 48.9908 48.9908C50.7757 47.206 53.6693 47.206 55.4542 48.9908L84.6877 78.2244L99.0967 60.6006L72.9965 28.6773C72.1285 27.6158 70.8296 27 69.4582 27H31.5703C29.0463 27 27 29.0463 27 31.5703V69.4585C27 70.8299 27.6158 72.1285 28.6773 72.9965V72.9965Z" fill="currentColor"/>
        <path d="M151.328 112.548L145.958 117.917L143.9 115.4L131.776 125.312L135.17 128.706L128.706 135.17L124.664 131.127L112.221 141.3L117.918 145.958L112.548 151.328C110.763 153.112 110.763 156.006 112.548 157.791C114.333 159.576 117.226 159.576 119.011 157.791L157.791 119.011C158.684 118.118 159.13 116.949 159.13 115.779C159.13 114.61 158.684 113.44 157.791 112.548C156.007 110.763 153.113 110.763 151.328 112.548V112.548Z" fill="currentColor"/>
    </g>
    <defs>
        <clipPath id="clip0">
            <rect width="156" height="156" fill="white" transform="translate(27 27)"/>
        </clipPath>
    </defs>
</svg>
